PathFileType	4	(x/y/z)	S01_M20_T04.trc
DataRate	CameraRate	NumFrames	NumMarkers	Units	OrigDataRate	OrigDataStartFrame	OrigNumFrames
240	240	7	51	mm	240	541	720
Frame#	Time	Sternum			R.Acromium			L.Acromium			Top.Head			R.ASIS			L.ASIS			R.PSIS			L.PSIS			R.Great.Tro			L.Great.Tro			R.Iliac.Crest			L.Iliac.Crest			V.Sacral			R.Thigh.Upper.Post			R.Thigh.Lower.Ant			R.Thigh.Lower.Post			R.Thigh.Upper.Ant			R.Knee.Lat			R.Knee.Med			R.Shank.Upper.Post			R.Shank.Lower.Ant			R.Shank.Lower.Post			R.Shank.Upper.Ant			R.Ankle.Lat			R.Ankle.Med			R.Heel.Upper			R.Heel.Med			R.Heel.Lat			R.Toe.Lat			R.Toe.Med			R.Toe.Tip			L.Thigh.Upper.Post			L.Thigh.Lower.Ant			L.Thigh.Lower.Post			L.Thigh.Upper.Ant			L.Knee.Lat			L.Knee.Med			L.Shank.Upper.Post			L.Shank.Lower.Ant			L.Shank.Lower.Post			L.Shank.Upper.Ant			L.Ankle.Lat			L.Ankle.Med			L.Heel.Upper			L.Heel.Med			L.Heel.Lat			L.Toe.Lat			L.Toe.Med			L.Toe.Tip			Cervical.Spine			Back			
		X1	Y1	Z1	X2	Y2	Z2	X3	Y3	Z3	X4	Y4	Z4	X5	Y5	Z5	X6	Y6	Z6	X7	Y7	Z7	X8	Y8	Z8	X9	Y9	Z9	X10	Y10	Z10	X11	Y11	Z11	X12	Y12	Z12	X13	Y13	Z13	X14	Y14	Z14	X15	Y15	Z15	X16	Y16	Z16	X17	Y17	Z17	X18	Y18	Z18	X19	Y19	Z19	X20	Y20	Z20	X21	Y21	Z21	X22	Y22	Z22	X23	Y23	Z23	X24	Y24	Z24	X25	Y25	Z25	X26	Y26	Z26	X27	Y27	Z27	X28	Y28	Z28	X29	Y29	Z29	X30	Y30	Z30	X31	Y31	Z31	X32	Y32	Z32	X33	Y33	Z33	X34	Y34	Z34	X35	Y35	Z35	X36	Y36	Z36	X37	Y37	Z37	X38	Y38	Z38	X39	Y39	Z39	X40	Y40	Z40	X41	Y41	Z41	X42	Y42	Z42	X43	Y43	Z43	X44	Y44	Z44	X45	Y45	Z45	X46	Y46	Z46	X47	Y47	Z47	X48	Y48	Z48	X49	Y49	Z49	X50	Y50	Z50	X51	Y51	Z51	

541	2.25	601.56	1183.1	459.29	450.36	1444.2	345.15	758.33	1474.4	450.95	582.26	1769.9	432.97	495.47	955.07	315.17	741.21	950.68	424.94	672.53	1038.4	144.15	768.42	1041.9	182.84	454.25	937.19	199.19	860.39	937.86	340.53	463.05	1064.4	226.43	846.75	1051.3	368.26	731.06	1006.2	146.21	375.95	652.83	239.85	316.12	621.05	317.2	353.66	575.47	279.54	339.12	701.34	281.06	324.83	526.56	304.74	406.12	525.06	425.42	382.33	383.48	239.06	364.29	288.42	293.29	401.92	315.18	236.89	344.63	359.52	288.6	453.19	115.73	237.46	465.71	111.46	335.27	544.23	80.765	255.58	542.3	49.36	285.94	518.61	52.634	225.92	322.82	44.261	252.47	344.29	42.48	378.36	264.51	63.517	355.14	928.29	677.09	301.92	970.07	630.27	393.45	945.4	590.73	328.6	949.85	716.99	358.22	992.62	527.1	384.31	867.67	489.37	440.7	1036.3	411.6	308.62	1059.5	313.67	356.84	1057.9	338.28	295.8	1043.3	388.19	368.95	1090.6	118.09	251.88	1003.7	104.73	304.81	1034.2	82.64	189.99	1007.2	53.479	206.11	1066.2	59.332	188.28	1166.1	38.159	372.96	1060.1	43.675	437.42	1129	46.177	481.49	622.81	1534.5	325.16	682.46	1252.3	182.49
542	2.2542	597	1184.1	458.87	446.59	1444.8	342.53	753.83	1475.4	450.71	578	1770.7	430.69	492.02	955.66	315.11	737.01	951.44	426.53	670.25	1038.2	145.09	765.93	1042	184.33	451.56	936.9	198.91	856.82	938.06	342.74	460.15	1064.7	225.69	842.91	1051.9	370.48	728.79	1006.2	147.53	374.79	651.64	239.14	314.57	619.39	316.07	352.77	574.09	278.6	337.15	699.83	279.99	323.73	525.12	303.84	404.54	524.09	424.66	381.27	382.16	238.56	363.77	287.12	293.01	401.07	313.94	236.42	343.79	358.13	288.21	453.39	114.86	237.14	465.99	110.74	334.93	544.54	80.181	255.19	542.69	48.826	285.61	519.01	51.91	225.61	323.16	43.388	252.05	344.64	41.805	378.11	264.79	62.408	354.68	925.39	677.78	302.58	967.06	630.62	393.98	942.53	591.32	328.91	946.67	717.46	359.15	989.91	527.57	384.3	864.97	489.14	440.1	1034.3	412.26	308.61	1057.9	314.49	356.97	1056.3	339.03	295.91	1041.2	388.92	368.97	1090.3	118.89	252.37	1003.6	105.06	305.35	1034	83.572	190.39	1007.1	54.239	206.43	1066.1	60.37	188.61	1166.2	38.198	373.04	1060.2	43.607	437.54	1129.1	45.95	481.61	619.37	1535	323.61	680.26	1252.3	182.6
543	2.2583	592.39	1185.1	458.42	442.81	1445.4	339.88	749.29	1476.3	450.45	573.7	1771.5	428.4	488.51	956.25	315.02	732.73	952.2	428.09	667.91	1038.1	146.01	763.37	1042	185.82	448.81	936.62	198.63	853.18	938.23	344.94	457.19	1064.9	224.95	839.02	1052.6	372.69	726.46	1006.1	148.85	373.59	650.48	238.5	313.03	617.74	315.05	351.86	572.73	277.74	335.17	698.33	279	322.6	523.71	303.04	403.06	523.11	423.89	380.13	380.86	238.12	363.22	285.84	292.83	400.15	312.72	236.01	342.91	356.75	287.91	453.51	114.01	236.85	466.27	110.04	334.62	544.79	79.589	254.79	543.01	48.288	285.27	519.31	51.186	225.29	323.43	42.605	251.75	344.97	41.22	377.95	265.07	61.421	354.37	922.42	678.48	303.31	963.97	630.98	394.59	939.6	591.92	329.3	943.41	717.94	360.15	987.12	528.07	384.38	862.17	488.9	439.54	1032.3	412.97	308.68	1056.2	315.35	357.17	1054.7	339.84	296.09	1039.1	389.7	369.07	1090.1	119.78	252.92	1003.5	105.44	305.93	1033.8	84.599	190.83	1007	55.088	206.77	1065.9	61.507	188.97	1166.2	38.261	373.12	1060.3	43.538	437.67	1129.2	45.727	481.74	615.91	1535.4	322.04	678.04	1252.2	182.72
544	2.2625	587.73	1186.1	457.93	439.01	1446	337.2	744.71	1477.2	450.17	569.37	1772.3	426.08	484.96	956.86	314.91	728.39	952.95	429.63	665.52	1037.9	146.93	760.74	1042	187.29	445.99	936.35	198.36	849.5	938.38	347.15	454.18	1065.2	224.2	835.06	1053.2	374.88	724.05	1006	150.16	372.32	649.35	237.93	311.48	616.13	314.12	350.9	571.41	276.95	333.16	696.88	278.11	321.43	522.33	302.33	401.66	522.14	423.14	378.93	379.59	237.74	362.63	284.61	292.73	399.16	311.53	235.66	341.98	355.42	287.69	453.58	113.2	236.6	466.54	109.37	334.33	544.97	79.01	254.39	543.27	47.762	284.93	519.53	50.486	224.99	323.63	41.916	251.55	345.28	40.72	377.89	265.32	60.551	354.18	919.4	679.18	304.13	960.78	631.35	395.3	936.62	592.53	329.77	940.07	718.42	361.23	984.26	528.58	384.57	859.27	488.67	439.02	1030.2	413.73	308.84	1054.5	316.27	357.43	1053	340.7	296.35	1036.9	390.52	369.25	1089.8	120.75	253.51	1003.3	105.87	306.56	1033.5	85.726	191.32	1006.8	56.031	207.15	1065.7	62.748	189.36	1166.3	38.354	373.21	1060.4	43.469	437.81	1129.3	45.509	481.87	612.45	1535.9	320.46	675.78	1252.1	182.83
545	2.2667	583.03	1187	457.41	435.19	1446.6	334.49	740.09	1478.2	449.88	565.01	1773.1	423.74	481.38	957.47	314.76	723.99	953.7	431.14	663.07	1037.8	147.82	758.06	1042	188.74	443.12	936.11	198.08	845.75	938.52	349.34	451.13	1065.6	223.44	831.05	1053.7	377.06	721.58	1005.9	151.44	370.97	648.28	237.43	309.91	614.59	313.31	349.87	570.15	276.24	331.12	695.49	277.31	320.22	521.02	301.72	400.32	521.21	422.42	377.67	378.37	237.43	362	283.42	292.7	398.12	310.39	235.36	341.01	354.14	287.55	453.58	112.45	236.39	466.78	108.76	334.08	545.1	78.463	254.01	543.47	47.265	284.62	519.67	49.828	224.71	323.77	41.322	251.43	345.57	40.299	377.89	265.55	59.792	354.09	916.32	679.9	305.02	957.51	631.73	396.09	933.59	593.15	330.33	936.66	718.91	362.4	981.33	529.12	384.87	856.28	488.43	438.56	1028.1	414.55	309.09	1052.7	317.23	357.77	1051.2	341.64	296.68	1034.6	391.38	369.52	1089.6	121.8	254.16	1003.1	106.36	307.23	1033.2	86.955	191.85	1006.6	57.072	207.56	1065.5	64.097	189.79	1166.3	38.483	373.3	1060.5	43.399	437.96	1129.5	45.299	482.01	608.99	1536.4	318.86	673.5	1252	182.94
546	2.2708	578.29	1188	456.86	431.38	1447.1	331.75	735.45	1479.1	449.58	560.63	1773.8	421.39	477.75	958.09	314.57	719.53	954.44	432.62	660.57	1037.7	148.69	755.31	1042	190.17	440.2	935.89	197.8	841.96	938.65	351.53	448.04	1065.9	222.66	826.99	1054.3	379.21	719.05	1005.8	152.71	369.52	647.3	237.01	308.31	613.13	312.61	348.75	568.97	275.62	329.04	694.19	276.61	318.95	519.78	301.2	399.02	520.35	421.75	376.37	377.22	237.17	361.34	282.3	292.72	397.03	309.32	235.13	340	352.92	287.47	453.53	111.77	236.21	466.99	108.21	333.87	545.18	77.963	253.66	543.62	46.808	284.32	519.76	49.226	224.44	323.85	40.818	251.39	345.81	39.948	377.96	265.74	59.134	354.09	913.19	680.62	306.01	954.15	632.12	396.99	930.51	593.79	330.99	933.17	719.41	363.66	978.32	529.68	385.28	853.19	488.19	438.15	1025.9	415.43	309.43	1050.9	318.24	358.19	1049.4	342.63	297.11	1032.3	392.28	369.88	1089.3	122.94	254.86	1003	106.9	307.94	1032.9	88.29	192.42	1006.5	58.215	208	1065.3	65.557	190.26	1166.3	38.657	373.4	1060.6	43.328	438.12	1129.6	45.099	482.16	605.54	1536.8	317.25	671.18	1251.9	183.05
547	2.275	573.51	1188.9	456.28	427.56	1447.7	328.99	730.77	1479.9	449.27	556.23	1774.6	419.02	474.1	958.72	314.34	715.03	955.18	434.06	658.02	1037.6	149.53	752.52	1041.9	191.57	437.23	935.71	197.5	838.13	938.78	353.7	444.92	1066.3	221.85	822.88	1054.9	381.33	716.46	1005.7	153.95	367.96	646.41	236.65	306.67	611.78	312.03	347.54	567.9	275.07	326.93	692.99	276.02	317.62	518.62	300.78	397.73	519.56	421.13	375.02	376.14	236.96	360.64	281.26	292.8	395.9	308.32	234.94	338.95	351.78	287.45	453.44	111.16	236.08	467.18	107.71	333.7	545.22	77.519	253.34	543.73	46.397	284.06	519.79	48.688	224.21	323.9	40.399	251.41	346.02	39.661	378.07	265.9	58.566	354.15	910.01	681.35	307.08	950.7	632.52	398	927.39	594.44	331.74	929.62	719.92	365.01	975.23	530.27	385.82	850.01	487.96	437.81	1023.7	416.37	309.88	1049	319.31	358.71	1047.6	343.69	297.62	1029.9	393.24	370.34	1088.9	124.17	255.62	1002.8	107.51	308.71	1032.6	89.733	193.06	1006.2	59.461	208.49	1065.1	67.13	190.76	1166.4	38.884	373.51	1060.7	43.254	438.29	1129.7	44.912	482.32	602.1	1537.3	315.63	668.84	1251.8	183.16
